<svg enable-background="new 0 0 512 512" viewBox="0 0 512 512">

<path d="m165.99 434.521c28.066 14.178 58.35 21.366 90.01 21.366 110.218 0 199.887-89.669 199.887-199.887 0-29.973-6.474-58.797-19.241-85.672-1.777-3.741-6.251-5.335-9.993-3.556-3.741 1.777-5.333 6.251-3.556 9.993 11.804 24.848 17.79 51.507 17.79 79.236 0 101.947-82.94 184.887-184.887 184.887-29.289 0-57.297-6.646-83.247-19.755-19.744-9.974-37.738-23.635-52.794-39.961l16.863 5.621c3.928 1.309 8.177-.814 9.487-4.744s-.814-8.177-4.744-9.487l-41.226-13.742c-2.464-.821-5.183-.309-7.177 1.357-1.996 1.666-2.986 4.246-2.619 6.819l6.871 48.097c.535 3.741 3.743 6.44 7.416 6.44.353 0 .71-.025 1.07-.076 4.101-.586 6.95-4.385 6.364-8.485l-3.048-21.331c16.214 17.506 35.558 32.163 56.774 42.88z"/><path d="m256 71.113c52.244 0 101.081 21.609 136.073 59.726l-16.895-5.632c-3.929-1.31-8.177.814-9.487 4.744s.814 8.177 4.744 9.487l41.226 13.742c.775.258 1.576.385 2.371.385 1.732 0 3.439-.6 4.807-1.742 1.996-1.666 2.986-4.246 2.619-6.819l-6.871-48.097c-.586-4.101-4.388-6.95-8.485-6.364-4.101.586-6.95 4.385-6.364 8.485l3.041 21.288c-37.806-40.981-90.462-64.203-146.779-64.203-110.218 0-199.887 89.669-199.887 199.887 0 29.973 6.474 58.797 19.241 85.672 1.284 2.703 3.974 4.284 6.78 4.284 1.078 0 2.174-.234 3.213-.728 3.741-1.777 5.333-6.251 3.556-9.993-11.804-24.848-17.79-51.507-17.79-79.236 0-101.946 82.94-184.886 184.887-184.886z"/>

<path d="m333.5 337.667h.066c4.111 0 7.463-3.315 7.498-7.436.036-4.15.157-18.42.283-36.344h11.516c4.142 0 7.5-3.358 7.5-7.5s-3.358-7.5-7.5-7.5h-11.416c.237-37.409.415-81.971-.037-87.396-.672-8.062-5.246-14.554-11.652-16.538-2.987-.926-10.757-2.063-18.4 7.315-8.326 10.214-53.129 91.285-58.21 100.496-1.282 2.323-1.241 5.151.108 7.436s3.805 3.687 6.458 3.687h66.632c-.088 12.679-.186 25.082-.281 36.215-.036 4.142 3.293 7.529 7.435 7.565zm-61.062-58.78c19.494-35.112 45.45-80.887 50.547-87.142 1.138-1.396 1.977-2 2.425-2.253.373.503.915 1.599 1.052 3.245.367 4.401.244 44.644-.016 86.15z"/>

<path d="m212.357 251.978c-23.607 33.729-37.704 52.188-45.277 62.104-8.794 11.514-10.624 13.911-9.167 18.65.789 2.563 2.764 4.542 5.418 5.427.991.33 2.93.979 31.038.979 11.085 0 26.247-.101 47.017-.362 4.142-.052 7.457-3.452 7.405-7.594s-3.494-7.455-7.594-7.405c-23.184.292-48.552.435-62.864.282.22-.288.442-.579.666-.873 7.64-10.003 21.86-28.623 45.646-62.607 8.792-12.563 14.489-24.274 16.932-34.809.057-.246.102-.494.133-.744l.733-5.738c.041-.315.061-.633.061-.951 0-25.064-20.392-45.456-45.456-45.456-21.673 0-40.432 15.415-44.603 36.654-.798 4.064 1.85 8.006 5.914 8.805 4.066.795 8.006-1.85 8.805-5.914 2.793-14.222 15.361-24.544 29.884-24.544 16.643 0 30.21 13.418 30.453 30.004l-.62 4.85c-2.056 8.573-6.942 18.408-14.524 29.242z"/>

<path d="m448.275 87.077c-2.735-3.111-7.475-3.417-10.584-.68-3.111 2.735-3.416 7.474-.68 10.584 38.684 43.999 59.989 100.474 59.989 159.019 0 64.374-25.068 124.894-70.587 170.413s-106.039 70.587-170.413 70.587-124.894-25.068-170.413-70.587-70.587-106.039-70.587-170.413 25.068-124.894 70.587-170.413 106.039-70.587 170.413-70.587c58.544 0 115.019 21.305 159.018 59.989 3.11 2.735 7.85 2.43 10.584-.68 2.735-3.111 2.431-7.85-.68-10.585-46.738-41.093-106.73-63.724-168.922-63.724-68.38 0-132.667 26.628-181.02 74.98s-74.98 112.64-74.98 181.02 26.628 132.667 74.98 181.02c48.353 48.351 112.64 74.98 181.02 74.98s132.667-26.629 181.02-74.98c48.352-48.353 74.98-112.64 74.98-181.02 0-62.193-22.631-122.185-63.725-168.923z"/>

</svg>